<svg viewBox="0 0 108 108" xmlns="http://www.w3.org/2000/svg">
<defs>
<linearGradient id="g3618621402" x1="0%" y1="0%" x2="100%" y2="100%">
<stop offset="0%" stop-color="#64748b"/>
<stop offset="100%" stop-color="#0ea5e9"/>
</linearGradient>
</defs>
<circle cx="54" cy="54" r="52" fill="none" stroke="url(#g3618621402)" stroke-width="3" stroke-linecap="round" stroke-dasharray="230 100" opacity="0.9">
<animateTransform attributeName="transform" type="rotate" from="0 54 54" to="360 54 54" dur="24s" repeatCount="indefinite"/>
</circle>
<g transform="translate(6,6) scale(0.96)"><mask id="viewboxMask"><rect width="100" height="100" rx="50" ry="50" x="0" y="0" fill="#fff" /></mask><g mask="url(#viewboxMask)"><rect fill="url(#backgroundLinear)" width="100" height="100" x="0" y="0" /><defs><linearGradient id="backgroundLinear" gradientTransform="rotate(250 0.5 0.5)"><stop stop-color="#f59e0b"/><stop offset="1" stop-color="#f97316"/></linearGradient></defs><g transform="matrix(1.2 0 0 1.2 -10 -10)"><g transform="translate(-43, -26) rotate(40 50 50)"><path d="m50 7 50 86.6H0L50 7Z" fill="#69d2e7"/></g></g><g transform="matrix(.8 0 0 .8 10 10)"><g transform="translate(-12, 26) rotate(27 50 50)"><path fill="#0a5b83" d="M45-150h10v400H45z"/></g></g><g transform="matrix(.4 0 0 .4 30 30)"><g transform="translate(-18, -10) rotate(-156 50 50)"><path fill-rule="evenodd" clip-rule="evenodd" d="M50 90a40 40 0 1 0 0-80 40 40 0 0 0 0 80Zm0 10A50 50 0 1 0 50 0a50 50 0 0 0 0 100Z" fill="#1c799f"/></g></g></g></g>
</svg>